<?xml version="1.0" encoding="UTF-8"?>
<svg width="1200" height="630" viewBox="0 0 1200 630" fill="none" xmlns="http://www.w3.org/2000/svg">
  <defs>
    <linearGradient id="bg-gradient" x1="0%" y1="0%" x2="100%" y2="100%">
      <stop offset="0%" style="stop-color:#1E293B"/>
      <stop offset="100%" style="stop-color:#0F172A"/>
    </linearGradient>
    <linearGradient id="accent-gradient" x1="0%" y1="0%" x2="100%" y2="0%">
      <stop offset="0%" style="stop-color:#3B82F6"/>
      <stop offset="100%" style="stop-color:#6366F1"/>
    </linearGradient>
    <filter id="shadow" x="-20%" y="-20%" width="140%" height="140%">
      <feGaussianBlur in="SourceAlpha" stdDeviation="10"/>
      <feOffset dx="0" dy="4"/>
      <feComposite in2="SourceAlpha" operator="arithmetic" k2="-1" k3="1"/>
      <feColorMatrix type="matrix" values="0 0 0 0 0.231 0 0 0 0 0.506 0 0 0 0 0.965 0 0 0 0.3 0"/>
    </filter>
  </defs>
  
  <!-- Background -->
  <rect width="1200" height="630" fill="url(#bg-gradient)"/>
  
  <!-- Grid Pattern -->
  <path d="M0 0h1200v630H0z" fill="url(#grid)" opacity="0.1"/>
  
  <!-- Decorative Elements -->
  <circle cx="200" cy="200" r="150" fill="url(#accent-gradient)" opacity="0.1" filter="url(#shadow)"/>
  <circle cx="1000" cy="500" r="200" fill="url(#accent-gradient)" opacity="0.1" filter="url(#shadow)"/>
  
  <!-- Logo -->
  <g transform="translate(500, 200)">
    <rect width="200" height="200" rx="40" fill="url(#accent-gradient)" filter="url(#shadow)"/>
    <path d="M60 100C60 77.9086 77.9086 60 100 60C122.091 60 140 77.9086 140 100C140 122.091 122.091 140 100 140" stroke="white" stroke-width="8" stroke-linecap="round" filter="url(#shadow)"/>
    <path d="M100 140C77.9086 140 60 122.091 60 100C60 77.9086 77.9086 60 100 60" stroke="white" stroke-width="8" stroke-linecap="round" opacity="0.7" filter="url(#shadow)"/>
    <circle cx="100" cy="100" r="12" fill="white" filter="url(#shadow)"/>
  </g>
  
  <!-- Text -->
  <text x="600" y="450" font-family="Inter, sans-serif" font-size="48" font-weight="bold" fill="white" text-anchor="middle" filter="url(#shadow)">
    ElevateModernZone
  </text>
  <text x="600" y="500" font-family="Inter, sans-serif" font-size="24" fill="white" text-anchor="middle" opacity="0.8">
    Business Consulting &amp; Digital Solutions
  </text>
</svg> 