<?xml version="1.0" encoding="UTF-8"?>
<svg width="512" height="512" viewBox="0 0 512 512" fill="none" xmlns="http://www.w3.org/2000/svg">
  <defs>
    <linearGradient id="gradient" x1="0%" y1="0%" x2="100%" y2="100%">
      <stop offset="0%" stop-color="#2563EB"/>
      <stop offset="100%" stop-color="#1E40AF"/>
    </linearGradient>
    <filter id="shadow" x="-20%" y="-20%" width="140%" height="140%">
      <feGaussianBlur in="SourceAlpha" stdDeviation="8"/>
      <feOffset dx="0" dy="8"/>
      <feComposite in2="SourceAlpha" operator="arithmetic" k2="-1" k3="1"/>
      <feColorMatrix type="matrix" values="0 0 0 0 0.231 0 0 0 0 0.506 0 0 0 0 0.965 0 0 0 0.5 0"/>
    </filter>
  </defs>
  <rect width="512" height="512" rx="120" fill="url(#gradient)"/>
  <!-- EMZ as paths, bold and centered -->
  <g filter="url(#shadow)">
    <path d="M110 370 L110 150 L210 150 L210 190 L150 190 L150 220 L200 220 L200 260 L150 260 L150 330 L210 330 L210 370 Z" fill="#fff"/>
    <path d="M240 370 L240 150 L340 150 L340 190 L280 190 L280 220 L330 220 L330 260 L280 260 L280 330 L340 330 L340 370 Z" fill="#fff"/>
    <path d="M370 370 L370 150 L470 150 L470 190 L410 190 L410 220 L460 220 L460 260 L410 260 L410 330 L470 330 L470 370 Z" fill="#fff"/>
  </g>
</svg>
